<?xml version="1.0" encoding="UTF-8"?>
<svg id="Capa_2" data-name="Capa 2" xmlns="http://www.w3.org/2000/svg" viewBox="0 0 425.87 425.87">
  <defs>
    <style>
      .cls-1 {
        fill: #ededed;
      }
    </style>
  </defs>
  <g id="Capa_1-2" data-name="Capa 1">
    <path class="cls-1" d="m212.94,0h0C95.33,0,0,95.33,0,212.94h0c0,117.6,95.33,212.94,212.94,212.94h0c117.6,0,212.94-95.33,212.94-212.94h0C425.87,95.33,330.54,0,212.94,0Zm-80.86,263.29c-8.84,8.74-21.37,8.45-30.2-.3-10.09-9.98-20.13-20.01-30.1-30.11-8.46-8.58-8.47-21.67-.18-29.95,8.37-8.36,21.64-8.21,30.26.39,4.92,4.9,9.77,9.88,15.73,15.91,1.24-1.78,1.95-3.2,3.01-4.27,13.83-13.91,27.67-27.82,41.61-41.63,6.89-6.83,15.86-8.47,24.13-4.72,7.78,3.52,12.81,11.5,12.46,20.01-.23,5.49-2.31,10.29-6.19,14.18-20.14,20.2-40.24,40.44-60.53,60.48Zm182.22,56.37c-.97.11-1.94.24-2.91.24-34.39.01-68.77.05-103.16-.02-9.34-.02-16.82-3.68-21.03-12.4-6.7-13.87,3.55-30.06,19.14-30.17,17.82-.13,35.64-.03,53.46-.03,17.4,0,34.8,0,52.21,0,12.28,0,21.71,8.33,22.29,19.65.64,12.3-7.28,21.3-20,22.73Zm4.43-86.34c-1.71.48-3.56.68-5.34.68-21.44.05-42.87.1-64.31,0-10.79-.05-19.84-8.07-21.01-18.28-1.24-10.78,5.36-20.55,15.95-23.26,2.25-.58,4.68-.56,7.03-.58,10.02-.06,20.04-.02,30.07-.02,10.72,0,21.44-.08,32.16.02,10.64.11,19.74,7.97,20.93,17.87,1.33,11.06-4.89,20.61-15.46,23.57Zm-5.68-84.74c-17.82.1-35.64.02-53.46.02-17.26,0-34.53,0-51.79,0-12.39,0-21.82-8.18-22.47-19.46-.72-12.51,7.22-21.54,20.2-22.93,1.24-.13,2.5-.23,3.74-.23,33.69-.01,67.38-.03,101.07,0,11.43.01,19.58,5.13,22.83,14.13,5.01,13.87-5.18,28.38-20.13,28.46Z"/>
  </g>
</svg>